<svg xmlns="http://www.w3.org/2000/svg" width="960" height="420" viewBox="0 0 960 420"><defs><marker id="arrow" markerWidth="10" markerHeight="10" refX="9" refY="3" orient="auto"><path d="M0,0 L0,6 L9,3 z" fill="#64748b"/></marker></defs><rect width="960" height="420" fill="#f8fafc"/><text x="40" y="55" font-family="Arial" font-size="26" font-weight="700" fill="#0f172a">Atlas Customer Onboarding</text><text x="40" y="88" font-family="Arial" font-size="14" fill="#475569">Synthetic architecture overview for MCP ingestion and project-memory testing</text><rect x="40" y="150" width="180" height="110" rx="16" fill="white" stroke="#334155" stroke-width="2"/><text x="130" y="185" text-anchor="middle" font-family="Arial" font-size="16" font-weight="700" fill="#0f172a">CRM</text><text x="130" y="212" text-anchor="middle" font-family="Arial" font-size="12" fill="#475569">Authoritative customer</text><text x="130" y="229" text-anchor="middle" font-family="Arial" font-size="12" fill="#475569">identity</text><line x1="220" y1="205" x2="260" y2="205" stroke="#64748b" stroke-width="3" marker-end="url(#arrow)"/><rect x="260" y="150" width="180" height="110" rx="16" fill="white" stroke="#334155" stroke-width="2"/><text x="350" y="185" text-anchor="middle" font-family="Arial" font-size="16" font-weight="700" fill="#0f172a">Harbor SSO</text><text x="350" y="212" text-anchor="middle" font-family="Arial" font-size="12" fill="#475569">Interim authentication</text><text x="350" y="229" text-anchor="middle" font-family="Arial" font-size="12" fill="#475569">bridge</text><line x1="440" y1="205" x2="480" y2="205" stroke="#64748b" stroke-width="3" marker-end="url(#arrow)"/><rect x="480" y="150" width="180" height="110" rx="16" fill="white" stroke="#334155" stroke-width="2"/><text x="570" y="185" text-anchor="middle" font-family="Arial" font-size="16" font-weight="700" fill="#0f172a">Onboarding Orchestrator</text><text x="570" y="212" text-anchor="middle" font-family="Arial" font-size="12" fill="#475569">Stage and exception</text><text x="570" y="229" text-anchor="middle" font-family="Arial" font-size="12" fill="#475569">workflow</text><line x1="660" y1="205" x2="700" y2="205" stroke="#64748b" stroke-width="3" marker-end="url(#arrow)"/><rect x="700" y="150" width="180" height="110" rx="16" fill="white" stroke="#334155" stroke-width="2"/><text x="790" y="185" text-anchor="middle" font-family="Arial" font-size="16" font-weight="700" fill="#0f172a">Client Portal</text><text x="790" y="212" text-anchor="middle" font-family="Arial" font-size="12" fill="#475569">Customer-facing status</text><text x="40" y="350" font-family="Arial" font-size="13" fill="#64748b">Decision context, ownership, dependencies, and implementation details live in linked project artifacts.</text></svg>