<svg xmlns="http://www.w3.org/2000/svg" width="1300" height="820" viewBox="0 0 1300 820"><defs><marker id="arrow" markerWidth="10" markerHeight="10" refX="9" refY="3" orient="auto"><path d="M0,0 L0,6 L9,3 z" fill="#64748b"/></marker></defs><rect width="1300" height="820" fill="#f8fafc"/><text x="55" y="55" font-family="Arial" font-size="30" font-weight="700" fill="#0f172a">Contoso Transformation Portfolio</text><text x="55" y="86" font-family="Arial" font-size="14" fill="#475569">Cross-project architecture and dependency landscape for synthetic project-memory testing</text><rect x="70" y="150" width="290" height="130" rx="18" fill="#eff6ff" stroke="#3b82f6" stroke-width="2"/><text x="215" y="190" text-anchor="middle" font-family="Arial" font-size="20" font-weight="700">ATLAS</text><text x="215" y="218" text-anchor="middle" font-family="Arial" font-size="13">Customer Onboarding</text><text x="215" y="246" text-anchor="middle" font-family="Arial" font-size="12" fill="#475569">CRM identity + SSO bridge</text><rect x="500" y="120" width="300" height="130" rx="18" fill="#f5f3ff" stroke="#7c3aed" stroke-width="2"/><text x="650" y="160" text-anchor="middle" font-family="Arial" font-size="20" font-weight="700">HARBOR</text><text x="650" y="188" text-anchor="middle" font-family="Arial" font-size="13">Identity Modernization</text><text x="650" y="216" text-anchor="middle" font-family="Arial" font-size="12" fill="#475569">SSO + authorization foundation</text><rect x="930" y="150" width="290" height="130" rx="18" fill="#ecfdf5" stroke="#059669" stroke-width="2"/><text x="1075" y="190" text-anchor="middle" font-family="Arial" font-size="20" font-weight="700">NOVA</text><text x="1075" y="218" text-anchor="middle" font-family="Arial" font-size="13">Sales Opportunity Intelligence</text><text x="1075" y="246" text-anchor="middle" font-family="Arial" font-size="12" fill="#475569">CRM evidence + permissions</text><rect x="220" y="440" width="310" height="130" rx="18" fill="#fff7ed" stroke="#f97316" stroke-width="2"/><text x="375" y="480" text-anchor="middle" font-family="Arial" font-size="20" font-weight="700">PULSE</text><text x="375" y="508" text-anchor="middle" font-family="Arial" font-size="13">Store Operations Intelligence</text><text x="375" y="536" text-anchor="middle" font-family="Arial" font-size="12" fill="#475569">Shared analytical platform</text><rect x="770" y="440" width="310" height="130" rx="18" fill="#fef2f2" stroke="#ef4444" stroke-width="2"/><text x="925" y="480" text-anchor="middle" font-family="Arial" font-size="20" font-weight="700">ORBIT</text><text x="925" y="508" text-anchor="middle" font-family="Arial" font-size="13">Financial Planning</text><text x="925" y="536" text-anchor="middle" font-family="Arial" font-size="12" fill="#475569">Shared analytical platform</text><line x1="360" y1="205" x2="495" y2="185" stroke="#64748b" stroke-width="3" marker-end="url(#arrow)"/><text x="425" y="178" text-anchor="middle" font-family="Arial" font-size="11">SSO bridge</text><line x1="800" y1="185" x2="925" y2="205" stroke="#64748b" stroke-width="3" marker-end="url(#arrow)"/><text x="865" y="176" text-anchor="middle" font-family="Arial" font-size="11">authorization</text><line x1="360" y1="235" x2="930" y2="235" stroke="#94a3b8" stroke-width="2" stroke-dasharray="7 7" marker-end="url(#arrow)"/><text x="650" y="260" text-anchor="middle" font-family="Arial" font-size="11">shared CRM identity quality</text><line x1="530" y1="505" x2="765" y2="505" stroke="#64748b" stroke-width="3" marker-end="url(#arrow)"/><text x="648" y="490" text-anchor="middle" font-family="Arial" font-size="11">platform capacity + batch windows</text><rect x="440" y="650" width="420" height="105" rx="18" fill="#ffffff" stroke="#334155" stroke-width="2"/><text x="650" y="684" text-anchor="middle" font-family="Arial" font-size="18" font-weight="700">Shared Enterprise Governance</text><text x="650" y="713" text-anchor="middle" font-family="Arial" font-size="13" fill="#475569">Enterprise Architecture • Data Platform • Change Management</text><text x="650" y="738" text-anchor="middle" font-family="Arial" font-size="12" fill="#64748b">Shared SMEs connect otherwise independent project histories.</text><line x1="650" y1="650" x2="650" y2="255" stroke="#94a3b8" stroke-width="2" stroke-dasharray="5 5"/><line x1="540" y1="650" x2="390" y2="575" stroke="#94a3b8" stroke-width="2" stroke-dasharray="5 5"/><line x1="760" y1="650" x2="910" y2="575" stroke="#94a3b8" stroke-width="2" stroke-dasharray="5 5"/></svg>